<mxfile host="app.diagrams.net" agent="Mozilla/5.0 (Macintosh; Intel Mac OS X 10_15_7) AppleWebKit/605.1.15 (KHTML, like Gecko) Version/18.0 Safari/605.1.15" version="24.7.16">
  <diagram name="Page-1" id="xe13xXv98UHJ8CBHMGjq">
    <mxGraphModel dx="792" dy="1221" grid="1" gridSize="10" guides="1" tooltips="1" connect="1" arrows="1" fold="1" page="1" pageScale="1" pageWidth="827" pageHeight="1169" math="0" shadow="0">
      <root>
        <mxCell id="0" />
        <mxCell id="1" parent="0" />
        <mxCell id="JELa3b7rI46nuOZy6Fjs-5" value="" style="edgeStyle=orthogonalEdgeStyle;html=1;endArrow=block;elbow=vertical;startArrow=block;startFill=1;endFill=1;strokeColor=#545B64;rounded=0;strokeWidth=4;" parent="1" source="ChEv1LqUuJzTwnQcjanD-5" target="ChEv1LqUuJzTwnQcjanD-4" edge="1">
          <mxGeometry width="100" relative="1" as="geometry">
            <mxPoint x="270" y="610" as="sourcePoint" />
            <mxPoint x="370" y="610" as="targetPoint" />
            <Array as="points">
              <mxPoint x="427" y="700" />
              <mxPoint x="550" y="700" />
              <mxPoint x="550" y="480" />
            </Array>
          </mxGeometry>
        </mxCell>
        <mxCell id="JELa3b7rI46nuOZy6Fjs-6" value="" style="edgeStyle=orthogonalEdgeStyle;html=1;endArrow=block;elbow=vertical;startArrow=block;startFill=1;endFill=1;strokeColor=#545B64;rounded=0;strokeWidth=4;" parent="1" source="JELa3b7rI46nuOZy6Fjs-2" target="ChEv1LqUuJzTwnQcjanD-4" edge="1">
          <mxGeometry width="100" relative="1" as="geometry">
            <mxPoint x="640" y="500" as="sourcePoint" />
            <mxPoint x="640" y="350" as="targetPoint" />
            <Array as="points">
              <mxPoint x="580" y="550" />
              <mxPoint x="580" y="440" />
            </Array>
          </mxGeometry>
        </mxCell>
        <mxCell id="JELa3b7rI46nuOZy6Fjs-7" value="" style="edgeStyle=orthogonalEdgeStyle;html=1;endArrow=block;elbow=vertical;startArrow=block;startFill=1;endFill=1;strokeColor=#545B64;rounded=0;strokeWidth=4;" parent="1" source="JELa3b7rI46nuOZy6Fjs-2" target="ChEv1LqUuJzTwnQcjanD-5" edge="1">
          <mxGeometry width="100" relative="1" as="geometry">
            <mxPoint x="724" y="938" as="sourcePoint" />
            <mxPoint x="510" y="870" as="targetPoint" />
            <Array as="points">
              <mxPoint x="580" y="630" />
              <mxPoint x="580" y="740" />
              <mxPoint x="427" y="740" />
            </Array>
          </mxGeometry>
        </mxCell>
        <mxCell id="JELa3b7rI46nuOZy6Fjs-2" value="&lt;font style=&quot;font-size: 25px;&quot;&gt;PostgreSQL&lt;/font&gt;" style="sketch=0;outlineConnect=0;fontColor=#232F3E;gradientColor=none;fillColor=#7EA6E0;strokeColor=none;dashed=0;verticalLabelPosition=bottom;verticalAlign=top;align=center;html=1;fontSize=12;fontStyle=0;aspect=fixed;pointerEvents=1;shape=mxgraph.aws4.generic_database;" parent="1" vertex="1">
          <mxGeometry x="650" y="510" width="113.46" height="150" as="geometry" />
        </mxCell>
        <mxCell id="JELa3b7rI46nuOZy6Fjs-8" value="" style="edgeStyle=orthogonalEdgeStyle;html=1;endArrow=block;elbow=vertical;startArrow=block;startFill=1;endFill=1;strokeColor=#545B64;rounded=0;strokeWidth=4;" parent="1" source="JELa3b7rI46nuOZy6Fjs-1" target="ChEv1LqUuJzTwnQcjanD-4" edge="1">
          <mxGeometry width="100" relative="1" as="geometry">
            <mxPoint x="200" y="900" as="sourcePoint" />
            <mxPoint x="200" y="750" as="targetPoint" />
            <Array as="points">
              <mxPoint x="240" y="540" />
              <mxPoint x="240" y="480" />
            </Array>
          </mxGeometry>
        </mxCell>
        <mxCell id="JELa3b7rI46nuOZy6Fjs-9" value="" style="edgeStyle=orthogonalEdgeStyle;html=1;endArrow=block;elbow=vertical;startArrow=block;startFill=1;endFill=1;strokeColor=#545B64;rounded=0;strokeWidth=4;" parent="1" source="JELa3b7rI46nuOZy6Fjs-1" target="ChEv1LqUuJzTwnQcjanD-5" edge="1">
          <mxGeometry width="100" relative="1" as="geometry">
            <mxPoint x="80" y="945" as="sourcePoint" />
            <mxPoint x="321" y="880" as="targetPoint" />
            <Array as="points">
              <mxPoint x="240" y="630" />
              <mxPoint x="240" y="690" />
            </Array>
          </mxGeometry>
        </mxCell>
        <mxCell id="JELa3b7rI46nuOZy6Fjs-1" value="&lt;font style=&quot;font-size: 25px;&quot;&gt;Clients&lt;/font&gt;" style="sketch=0;outlineConnect=0;fontColor=#232F3E;gradientColor=none;fillColor=#232F3D;strokeColor=none;dashed=0;verticalLabelPosition=bottom;verticalAlign=top;align=center;html=1;fontSize=12;fontStyle=0;aspect=fixed;pointerEvents=1;shape=mxgraph.aws4.users;" parent="1" vertex="1">
          <mxGeometry x="40" y="510" width="150" height="150" as="geometry" />
        </mxCell>
        <mxCell id="ChEv1LqUuJzTwnQcjanD-1" value="&lt;font style=&quot;font-size: 25px;&quot;&gt;Client emails&lt;/font&gt;" style="sketch=0;outlineConnect=0;fontColor=#232F3E;gradientColor=none;fillColor=#0000FF;strokeColor=none;dashed=0;verticalLabelPosition=bottom;verticalAlign=top;align=center;html=1;fontSize=12;fontStyle=0;aspect=fixed;pointerEvents=1;shape=mxgraph.aws4.email_2;" parent="1" vertex="1">
          <mxGeometry x="51.33" y="30" width="127.35" height="80" as="geometry" />
        </mxCell>
        <mxCell id="ChEv1LqUuJzTwnQcjanD-4" value="&lt;font style=&quot;font-size: 25px;&quot;&gt;User Service&lt;/font&gt;" style="sketch=0;outlineConnect=0;fontColor=#232F3E;gradientColor=none;fillColor=#232F3D;strokeColor=none;dashed=0;verticalLabelPosition=bottom;verticalAlign=top;align=center;html=1;fontSize=12;fontStyle=0;aspect=fixed;pointerEvents=1;shape=mxgraph.aws4.servers;" parent="1" vertex="1">
          <mxGeometry x="364" y="420" width="100" height="100" as="geometry" />
        </mxCell>
        <mxCell id="ChEv1LqUuJzTwnQcjanD-5" value="&lt;span style=&quot;font-size: 25px;&quot;&gt;Authorisation Service&lt;/span&gt;" style="sketch=0;outlineConnect=0;fontColor=#232F3E;gradientColor=none;fillColor=#232F3D;strokeColor=none;dashed=0;verticalLabelPosition=bottom;verticalAlign=top;align=center;html=1;fontSize=12;fontStyle=0;aspect=fixed;pointerEvents=1;shape=mxgraph.aws4.servers;" parent="1" vertex="1">
          <mxGeometry x="364" y="670" width="100" height="100" as="geometry" />
        </mxCell>
        <mxCell id="ChEv1LqUuJzTwnQcjanD-6" value="&lt;font style=&quot;font-size: 25px;&quot;&gt;Rabbit MQ&lt;/font&gt;" style="sketch=0;outlineConnect=0;fontColor=#232F3E;gradientColor=none;fillColor=#FF8000;strokeColor=none;dashed=0;verticalLabelPosition=bottom;verticalAlign=top;align=center;html=1;fontSize=12;fontStyle=0;aspect=fixed;pointerEvents=1;shape=mxgraph.aws4.mq_broker;" parent="1" vertex="1">
          <mxGeometry x="655.86" y="320" width="101.74" height="90" as="geometry" />
        </mxCell>
        <mxCell id="ChEv1LqUuJzTwnQcjanD-7" value="" style="edgeStyle=orthogonalEdgeStyle;html=1;endArrow=block;elbow=vertical;startArrow=none;startFill=0;endFill=1;strokeColor=#545B64;rounded=0;strokeWidth=4;" parent="1" source="ChEv1LqUuJzTwnQcjanD-4" target="ChEv1LqUuJzTwnQcjanD-6" edge="1">
          <mxGeometry width="100" relative="1" as="geometry">
            <mxPoint x="560" y="310" as="sourcePoint" />
            <mxPoint x="734" y="220" as="targetPoint" />
            <Array as="points">
              <mxPoint x="414" y="370" />
            </Array>
          </mxGeometry>
        </mxCell>
        <mxCell id="ChEv1LqUuJzTwnQcjanD-9" value="&lt;font style=&quot;font-size: 25px;&quot;&gt;Notification Service&lt;/font&gt;" style="sketch=0;outlineConnect=0;fontColor=#232F3E;gradientColor=none;fillColor=#994C00;strokeColor=none;dashed=0;verticalLabelPosition=bottom;verticalAlign=top;align=center;html=1;fontSize=12;fontStyle=0;aspect=fixed;pointerEvents=1;shape=mxgraph.aws4.servers;" parent="1" vertex="1">
          <mxGeometry x="364" y="200" width="100" height="100" as="geometry" />
        </mxCell>
        <mxCell id="ChEv1LqUuJzTwnQcjanD-11" value="" style="edgeStyle=orthogonalEdgeStyle;html=1;endArrow=none;elbow=vertical;startArrow=block;startFill=1;endFill=0;strokeColor=#545B64;rounded=0;strokeWidth=4;" parent="1" source="ChEv1LqUuJzTwnQcjanD-9" target="ChEv1LqUuJzTwnQcjanD-6" edge="1">
          <mxGeometry width="100" relative="1" as="geometry">
            <mxPoint x="424" y="411" as="sourcePoint" />
            <mxPoint x="666" y="345" as="targetPoint" />
            <Array as="points">
              <mxPoint x="707" y="250" />
            </Array>
          </mxGeometry>
        </mxCell>
        <mxCell id="ChEv1LqUuJzTwnQcjanD-13" value="" style="edgeStyle=orthogonalEdgeStyle;html=1;endArrow=none;elbow=vertical;startArrow=block;startFill=1;endFill=0;strokeColor=#545B64;rounded=0;strokeWidth=4;" parent="1" source="JELa3b7rI46nuOZy6Fjs-1" target="ChEv1LqUuJzTwnQcjanD-9" edge="1">
          <mxGeometry width="100" relative="1" as="geometry">
            <mxPoint x="120" y="370" as="sourcePoint" />
            <mxPoint x="297" y="370" as="targetPoint" />
            <Array as="points">
              <mxPoint x="115" y="250" />
            </Array>
          </mxGeometry>
        </mxCell>
        <mxCell id="GHzeskM73afE_KnXw8ch-1" value="&lt;font style=&quot;font-size: 25px;&quot;&gt;Mailer Service&lt;/font&gt;" style="sketch=0;outlineConnect=0;fontColor=#232F3E;gradientColor=none;fillColor=#0000FF;strokeColor=none;dashed=0;verticalLabelPosition=bottom;verticalAlign=top;align=center;html=1;fontSize=12;fontStyle=0;aspect=fixed;pointerEvents=1;shape=mxgraph.aws4.servers;" vertex="1" parent="1">
          <mxGeometry x="364" y="20.000000000000014" width="100" height="100" as="geometry" />
        </mxCell>
        <mxCell id="GHzeskM73afE_KnXw8ch-2" value="" style="edgeStyle=orthogonalEdgeStyle;html=1;endArrow=none;elbow=vertical;startArrow=block;startFill=1;endFill=0;strokeColor=#545B64;rounded=0;strokeWidth=4;" edge="1" parent="1" source="GHzeskM73afE_KnXw8ch-1" target="ChEv1LqUuJzTwnQcjanD-6">
          <mxGeometry width="100" relative="1" as="geometry">
            <mxPoint x="474" as="sourcePoint" />
            <mxPoint x="717" y="110" as="targetPoint" />
            <Array as="points">
              <mxPoint x="707" y="70" />
            </Array>
          </mxGeometry>
        </mxCell>
        <mxCell id="GHzeskM73afE_KnXw8ch-3" value="" style="edgeStyle=orthogonalEdgeStyle;html=1;endArrow=none;elbow=vertical;startArrow=block;startFill=1;endFill=0;strokeColor=#545B64;rounded=0;strokeWidth=4;" edge="1" parent="1" source="ChEv1LqUuJzTwnQcjanD-1" target="GHzeskM73afE_KnXw8ch-1">
          <mxGeometry width="100" relative="1" as="geometry">
            <mxPoint x="474" y="-90" as="sourcePoint" />
            <mxPoint x="717" y="300" as="targetPoint" />
            <Array as="points">
              <mxPoint x="180" y="70" />
              <mxPoint x="180" y="70" />
            </Array>
          </mxGeometry>
        </mxCell>
      </root>
    </mxGraphModel>
  </diagram>
</mxfile>
